<svg xmlns="http://www.w3.org/2000/svg" viewBox="0 0 256 256"><defs><linearGradient id="linear-gradient" x1="-18.03" x2="274.03" y1="230.25" y2="25.75" gradientUnits="userSpaceOnUse"><stop offset="0" stop-color="#00c2f3"/><stop offset=".94" stop-color="#1c75bc"/></linearGradient><filter id="drop-shadow-1" filterUnits="userSpaceOnUse"><feOffset dx="7" dy="7"/><feGaussianBlur result="blur" stdDeviation="7"/><feFlood flood-color="#231f20" flood-opacity=".25"/><feComposite in2="blur" operator="in"/><feComposite in="SourceGraphic"/></filter><style>.cls-1{fill:#fff}</style></defs><path id="Layer_2" d="M0 0h256v256H0z" data-name="Layer 2" style="fill:url(#linear-gradient)"/><g id="Layer_1" data-name="Layer 1" style="fill:none;filter:url(#drop-shadow-1)"><path d="M196.89 78.49h-72.58V72.5c0-9.41-7.66-17.07-17.07-17.07H59.11c-9.41 0-17.06 7.66-17.06 17.07v111.01c0 9.41 7.65 17.06 17.06 17.06h137.77c9.41 0 17.06-7.65 17.06-17.06V95.56c0-9.41-7.65-17.07-17.06-17.07Zm2.61 105.02c0 1.44-1.17 2.61-2.61 2.61H59.12c-1.44 0-2.61-1.17-2.61-2.61V72.5a2.62 2.62 0 0 1 2.61-2.62h48.13c1.44 0 2.62 1.17 2.62 2.62V92.94h87.03c1.44 0 2.61 1.17 2.61 2.62v87.95Z" class="cls-1"/><rect width="106.09" height="14.45" x="74.95" y="120.77" class="cls-1" rx=".75" ry=".75"/><rect width="106.09" height="14.45" x="74.95" y="149.68" class="cls-1" rx=".75" ry=".75"/></g></svg>